<mxfile host="app.diagrams.net" modified="2024-05-04T01:53:10.675Z" agent="Mozilla/5.0 (Macintosh; Intel Mac OS X 10.15; rv:125.0) Gecko/20100101 Firefox/125.0" etag="rt1MkhICt3A4TGYKP0-p" version="24.3.1" type="github">
  <diagram name="Page-1" id="NJj6v3TNy6NycYDOOsy1">
    <mxGraphModel dx="1067" dy="671" grid="0" gridSize="10" guides="1" tooltips="1" connect="1" arrows="1" fold="1" page="1" pageScale="1" pageWidth="850" pageHeight="1100" math="0" shadow="0">
      <root>
        <mxCell id="0" />
        <mxCell id="1" parent="0" />
        <mxCell id="eZbpMwk5PudAEd0YVaxT-1" value="Cliente" style="swimlane;fontStyle=0;childLayout=stackLayout;horizontal=1;startSize=26;fillColor=none;horizontalStack=0;resizeParent=1;resizeParentMax=0;resizeLast=0;collapsible=1;marginBottom=0;whiteSpace=wrap;html=1;" parent="1" vertex="1">
          <mxGeometry x="40" y="713" width="140" height="174" as="geometry" />
        </mxCell>
        <mxCell id="eZbpMwk5PudAEd0YVaxT-2" value="id_cliente" style="text;strokeColor=none;fillColor=none;align=left;verticalAlign=top;spacingLeft=4;spacingRight=4;overflow=hidden;rotatable=0;points=[[0,0.5],[1,0.5]];portConstraint=eastwest;whiteSpace=wrap;html=1;" parent="eZbpMwk5PudAEd0YVaxT-1" vertex="1">
          <mxGeometry y="26" width="140" height="26" as="geometry" />
        </mxCell>
        <mxCell id="eZbpMwk5PudAEd0YVaxT-3" value="nombre" style="text;strokeColor=none;fillColor=none;align=left;verticalAlign=top;spacingLeft=4;spacingRight=4;overflow=hidden;rotatable=0;points=[[0,0.5],[1,0.5]];portConstraint=eastwest;whiteSpace=wrap;html=1;" parent="eZbpMwk5PudAEd0YVaxT-1" vertex="1">
          <mxGeometry y="52" width="140" height="26" as="geometry" />
        </mxCell>
        <mxCell id="-5baJ4B15Eqb_kxvuub7-14" value="apellido" style="text;strokeColor=none;fillColor=none;align=left;verticalAlign=top;spacingLeft=4;spacingRight=4;overflow=hidden;rotatable=0;points=[[0,0.5],[1,0.5]];portConstraint=eastwest;whiteSpace=wrap;html=1;" vertex="1" parent="eZbpMwk5PudAEd0YVaxT-1">
          <mxGeometry y="78" width="140" height="32" as="geometry" />
        </mxCell>
        <mxCell id="-5baJ4B15Eqb_kxvuub7-41" value="direccion" style="text;strokeColor=none;fillColor=none;align=left;verticalAlign=top;spacingLeft=4;spacingRight=4;overflow=hidden;rotatable=0;points=[[0,0.5],[1,0.5]];portConstraint=eastwest;whiteSpace=wrap;html=1;" vertex="1" parent="eZbpMwk5PudAEd0YVaxT-1">
          <mxGeometry y="110" width="140" height="32" as="geometry" />
        </mxCell>
        <mxCell id="eZbpMwk5PudAEd0YVaxT-4" value="&lt;div&gt;correo&lt;/div&gt;" style="text;strokeColor=none;fillColor=none;align=left;verticalAlign=top;spacingLeft=4;spacingRight=4;overflow=hidden;rotatable=0;points=[[0,0.5],[1,0.5]];portConstraint=eastwest;whiteSpace=wrap;html=1;" parent="eZbpMwk5PudAEd0YVaxT-1" vertex="1">
          <mxGeometry y="142" width="140" height="32" as="geometry" />
        </mxCell>
        <mxCell id="-5baJ4B15Eqb_kxvuub7-17" style="edgeStyle=orthogonalEdgeStyle;rounded=0;orthogonalLoop=1;jettySize=auto;html=1;entryX=0;entryY=0.5;entryDx=0;entryDy=0;endArrow=ERmandOne;endFill=0;startArrow=ERoneToMany;startFill=0;" edge="1" parent="1" source="eZbpMwk5PudAEd0YVaxT-6" target="-5baJ4B15Eqb_kxvuub7-2">
          <mxGeometry relative="1" as="geometry" />
        </mxCell>
        <mxCell id="eZbpMwk5PudAEd0YVaxT-6" value="Libro" style="swimlane;fontStyle=0;childLayout=stackLayout;horizontal=1;startSize=26;fillColor=none;horizontalStack=0;resizeParent=1;resizeParentMax=0;resizeLast=0;collapsible=1;marginBottom=0;whiteSpace=wrap;html=1;" parent="1" vertex="1">
          <mxGeometry x="373" y="333" width="118" height="174" as="geometry" />
        </mxCell>
        <mxCell id="eZbpMwk5PudAEd0YVaxT-7" value="id_libro" style="text;strokeColor=none;fillColor=none;align=left;verticalAlign=top;spacingLeft=4;spacingRight=4;overflow=hidden;rotatable=0;points=[[0,0.5],[1,0.5]];portConstraint=eastwest;whiteSpace=wrap;html=1;" parent="eZbpMwk5PudAEd0YVaxT-6" vertex="1">
          <mxGeometry y="26" width="118" height="26" as="geometry" />
        </mxCell>
        <mxCell id="eZbpMwk5PudAEd0YVaxT-8" value="nombre" style="text;strokeColor=none;fillColor=none;align=left;verticalAlign=top;spacingLeft=4;spacingRight=4;overflow=hidden;rotatable=0;points=[[0,0.5],[1,0.5]];portConstraint=eastwest;whiteSpace=wrap;html=1;" parent="eZbpMwk5PudAEd0YVaxT-6" vertex="1">
          <mxGeometry y="52" width="118" height="26" as="geometry" />
        </mxCell>
        <mxCell id="eZbpMwk5PudAEd0YVaxT-9" value="id_autor" style="text;strokeColor=none;fillColor=none;align=left;verticalAlign=top;spacingLeft=4;spacingRight=4;overflow=hidden;rotatable=0;points=[[0,0.5],[1,0.5]];portConstraint=eastwest;whiteSpace=wrap;html=1;" parent="eZbpMwk5PudAEd0YVaxT-6" vertex="1">
          <mxGeometry y="78" width="118" height="32" as="geometry" />
        </mxCell>
        <mxCell id="eZbpMwk5PudAEd0YVaxT-10" value="id_categoria" style="text;strokeColor=none;fillColor=none;align=left;verticalAlign=top;spacingLeft=4;spacingRight=4;overflow=hidden;rotatable=0;points=[[0,0.5],[1,0.5]];portConstraint=eastwest;whiteSpace=wrap;html=1;" parent="eZbpMwk5PudAEd0YVaxT-6" vertex="1">
          <mxGeometry y="110" width="118" height="32" as="geometry" />
        </mxCell>
        <mxCell id="-5baJ4B15Eqb_kxvuub7-10" value="precio" style="text;strokeColor=none;fillColor=none;align=left;verticalAlign=top;spacingLeft=4;spacingRight=4;overflow=hidden;rotatable=0;points=[[0,0.5],[1,0.5]];portConstraint=eastwest;whiteSpace=wrap;html=1;" vertex="1" parent="eZbpMwk5PudAEd0YVaxT-6">
          <mxGeometry y="142" width="118" height="32" as="geometry" />
        </mxCell>
        <mxCell id="eZbpMwk5PudAEd0YVaxT-11" value="Pedido" style="swimlane;fontStyle=0;childLayout=stackLayout;horizontal=1;startSize=26;fillColor=none;horizontalStack=0;resizeParent=1;resizeParentMax=0;resizeLast=0;collapsible=1;marginBottom=0;whiteSpace=wrap;html=1;" parent="1" vertex="1">
          <mxGeometry x="45" y="295" width="140" height="104" as="geometry" />
        </mxCell>
        <mxCell id="eZbpMwk5PudAEd0YVaxT-12" value="id_pedido" style="text;strokeColor=none;fillColor=none;align=left;verticalAlign=top;spacingLeft=4;spacingRight=4;overflow=hidden;rotatable=0;points=[[0,0.5],[1,0.5]];portConstraint=eastwest;whiteSpace=wrap;html=1;" parent="eZbpMwk5PudAEd0YVaxT-11" vertex="1">
          <mxGeometry y="26" width="140" height="26" as="geometry" />
        </mxCell>
        <mxCell id="-5baJ4B15Eqb_kxvuub7-36" value="id_detalle" style="text;strokeColor=none;fillColor=none;align=left;verticalAlign=top;spacingLeft=4;spacingRight=4;overflow=hidden;rotatable=0;points=[[0,0.5],[1,0.5]];portConstraint=eastwest;whiteSpace=wrap;html=1;" vertex="1" parent="eZbpMwk5PudAEd0YVaxT-11">
          <mxGeometry y="52" width="140" height="26" as="geometry" />
        </mxCell>
        <mxCell id="eZbpMwk5PudAEd0YVaxT-13" value="fecha" style="text;strokeColor=none;fillColor=none;align=left;verticalAlign=top;spacingLeft=4;spacingRight=4;overflow=hidden;rotatable=0;points=[[0,0.5],[1,0.5]];portConstraint=eastwest;whiteSpace=wrap;html=1;" parent="eZbpMwk5PudAEd0YVaxT-11" vertex="1">
          <mxGeometry y="78" width="140" height="26" as="geometry" />
        </mxCell>
        <mxCell id="-5baJ4B15Eqb_kxvuub7-1" value="Autor" style="swimlane;fontStyle=0;childLayout=stackLayout;horizontal=1;startSize=26;fillColor=none;horizontalStack=0;resizeParent=1;resizeParentMax=0;resizeLast=0;collapsible=1;marginBottom=0;whiteSpace=wrap;html=1;" vertex="1" parent="1">
          <mxGeometry x="605" y="336" width="140" height="110" as="geometry" />
        </mxCell>
        <mxCell id="-5baJ4B15Eqb_kxvuub7-2" value="id_autor" style="text;strokeColor=none;fillColor=none;align=left;verticalAlign=top;spacingLeft=4;spacingRight=4;overflow=hidden;rotatable=0;points=[[0,0.5],[1,0.5]];portConstraint=eastwest;whiteSpace=wrap;html=1;" vertex="1" parent="-5baJ4B15Eqb_kxvuub7-1">
          <mxGeometry y="26" width="140" height="26" as="geometry" />
        </mxCell>
        <mxCell id="-5baJ4B15Eqb_kxvuub7-3" value="nombre" style="text;strokeColor=none;fillColor=none;align=left;verticalAlign=top;spacingLeft=4;spacingRight=4;overflow=hidden;rotatable=0;points=[[0,0.5],[1,0.5]];portConstraint=eastwest;whiteSpace=wrap;html=1;" vertex="1" parent="-5baJ4B15Eqb_kxvuub7-1">
          <mxGeometry y="52" width="140" height="26" as="geometry" />
        </mxCell>
        <mxCell id="-5baJ4B15Eqb_kxvuub7-4" value="apellido" style="text;strokeColor=none;fillColor=none;align=left;verticalAlign=top;spacingLeft=4;spacingRight=4;overflow=hidden;rotatable=0;points=[[0,0.5],[1,0.5]];portConstraint=eastwest;whiteSpace=wrap;html=1;" vertex="1" parent="-5baJ4B15Eqb_kxvuub7-1">
          <mxGeometry y="78" width="140" height="32" as="geometry" />
        </mxCell>
        <mxCell id="-5baJ4B15Eqb_kxvuub7-6" value="Categoria" style="swimlane;fontStyle=0;childLayout=stackLayout;horizontal=1;startSize=26;fillColor=none;horizontalStack=0;resizeParent=1;resizeParentMax=0;resizeLast=0;collapsible=1;marginBottom=0;whiteSpace=wrap;html=1;" vertex="1" parent="1">
          <mxGeometry x="605" y="534" width="140" height="104" as="geometry" />
        </mxCell>
        <mxCell id="-5baJ4B15Eqb_kxvuub7-7" value="id_categoria" style="text;strokeColor=none;fillColor=none;align=left;verticalAlign=top;spacingLeft=4;spacingRight=4;overflow=hidden;rotatable=0;points=[[0,0.5],[1,0.5]];portConstraint=eastwest;whiteSpace=wrap;html=1;" vertex="1" parent="-5baJ4B15Eqb_kxvuub7-6">
          <mxGeometry y="26" width="140" height="26" as="geometry" />
        </mxCell>
        <mxCell id="-5baJ4B15Eqb_kxvuub7-64" value="id_genero" style="text;strokeColor=none;fillColor=none;align=left;verticalAlign=top;spacingLeft=4;spacingRight=4;overflow=hidden;rotatable=0;points=[[0,0.5],[1,0.5]];portConstraint=eastwest;whiteSpace=wrap;html=1;" vertex="1" parent="-5baJ4B15Eqb_kxvuub7-6">
          <mxGeometry y="52" width="140" height="26" as="geometry" />
        </mxCell>
        <mxCell id="-5baJ4B15Eqb_kxvuub7-8" value="nombre" style="text;strokeColor=none;fillColor=none;align=left;verticalAlign=top;spacingLeft=4;spacingRight=4;overflow=hidden;rotatable=0;points=[[0,0.5],[1,0.5]];portConstraint=eastwest;whiteSpace=wrap;html=1;" vertex="1" parent="-5baJ4B15Eqb_kxvuub7-6">
          <mxGeometry y="78" width="140" height="26" as="geometry" />
        </mxCell>
        <mxCell id="-5baJ4B15Eqb_kxvuub7-16" style="edgeStyle=orthogonalEdgeStyle;rounded=0;orthogonalLoop=1;jettySize=auto;html=1;entryX=0;entryY=0.5;entryDx=0;entryDy=0;exitX=1;exitY=0.5;exitDx=0;exitDy=0;endArrow=ERmandOne;endFill=0;startArrow=ERoneToMany;startFill=0;" edge="1" parent="1" source="eZbpMwk5PudAEd0YVaxT-10" target="-5baJ4B15Eqb_kxvuub7-7">
          <mxGeometry relative="1" as="geometry">
            <mxPoint x="544" y="257.5" as="sourcePoint" />
            <mxPoint x="588" y="516.5" as="targetPoint" />
          </mxGeometry>
        </mxCell>
        <mxCell id="-5baJ4B15Eqb_kxvuub7-27" value="Envio" style="swimlane;fontStyle=0;childLayout=stackLayout;horizontal=1;startSize=26;fillColor=none;horizontalStack=0;resizeParent=1;resizeParentMax=0;resizeLast=0;collapsible=1;marginBottom=0;whiteSpace=wrap;html=1;" vertex="1" parent="1">
          <mxGeometry x="45" y="560" width="140" height="78" as="geometry" />
        </mxCell>
        <mxCell id="-5baJ4B15Eqb_kxvuub7-28" value="id_envio" style="text;strokeColor=none;fillColor=none;align=left;verticalAlign=top;spacingLeft=4;spacingRight=4;overflow=hidden;rotatable=0;points=[[0,0.5],[1,0.5]];portConstraint=eastwest;whiteSpace=wrap;html=1;" vertex="1" parent="-5baJ4B15Eqb_kxvuub7-27">
          <mxGeometry y="26" width="140" height="26" as="geometry" />
        </mxCell>
        <mxCell id="-5baJ4B15Eqb_kxvuub7-29" value="id_pedido" style="text;strokeColor=none;fillColor=none;align=left;verticalAlign=top;spacingLeft=4;spacingRight=4;overflow=hidden;rotatable=0;points=[[0,0.5],[1,0.5]];portConstraint=eastwest;whiteSpace=wrap;html=1;" vertex="1" parent="-5baJ4B15Eqb_kxvuub7-27">
          <mxGeometry y="52" width="140" height="26" as="geometry" />
        </mxCell>
        <mxCell id="-5baJ4B15Eqb_kxvuub7-42" value="&lt;div&gt;DetalleCompra&lt;br&gt;&lt;/div&gt;" style="swimlane;fontStyle=0;childLayout=stackLayout;horizontal=1;startSize=26;fillColor=none;horizontalStack=0;resizeParent=1;resizeParentMax=0;resizeLast=0;collapsible=1;marginBottom=0;whiteSpace=wrap;html=1;" vertex="1" parent="1">
          <mxGeometry x="285" y="621" width="140" height="135" as="geometry" />
        </mxCell>
        <mxCell id="-5baJ4B15Eqb_kxvuub7-55" value="id_detalle" style="text;strokeColor=none;fillColor=none;align=left;verticalAlign=top;spacingLeft=4;spacingRight=4;overflow=hidden;rotatable=0;points=[[0,0.5],[1,0.5]];portConstraint=eastwest;whiteSpace=wrap;html=1;" vertex="1" parent="-5baJ4B15Eqb_kxvuub7-42">
          <mxGeometry y="26" width="140" height="25" as="geometry" />
        </mxCell>
        <mxCell id="-5baJ4B15Eqb_kxvuub7-52" value="id_cliente" style="text;strokeColor=none;fillColor=none;align=left;verticalAlign=top;spacingLeft=4;spacingRight=4;overflow=hidden;rotatable=0;points=[[0,0.5],[1,0.5]];portConstraint=eastwest;whiteSpace=wrap;html=1;" vertex="1" parent="-5baJ4B15Eqb_kxvuub7-42">
          <mxGeometry y="51" width="140" height="26" as="geometry" />
        </mxCell>
        <mxCell id="-5baJ4B15Eqb_kxvuub7-50" value="id_libro" style="text;strokeColor=none;fillColor=none;align=left;verticalAlign=top;spacingLeft=4;spacingRight=4;overflow=hidden;rotatable=0;points=[[0,0.5],[1,0.5]];portConstraint=eastwest;whiteSpace=wrap;html=1;" vertex="1" parent="-5baJ4B15Eqb_kxvuub7-42">
          <mxGeometry y="77" width="140" height="26" as="geometry" />
        </mxCell>
        <mxCell id="-5baJ4B15Eqb_kxvuub7-45" value="cantidad" style="text;strokeColor=none;fillColor=none;align=left;verticalAlign=top;spacingLeft=4;spacingRight=4;overflow=hidden;rotatable=0;points=[[0,0.5],[1,0.5]];portConstraint=eastwest;whiteSpace=wrap;html=1;" vertex="1" parent="-5baJ4B15Eqb_kxvuub7-42">
          <mxGeometry y="103" width="140" height="32" as="geometry" />
        </mxCell>
        <mxCell id="-5baJ4B15Eqb_kxvuub7-56" style="edgeStyle=orthogonalEdgeStyle;rounded=0;orthogonalLoop=1;jettySize=auto;html=1;entryX=1.008;entryY=0.698;entryDx=0;entryDy=0;entryPerimeter=0;endArrow=ERoneToMany;endFill=0;startArrow=ERmandOne;startFill=0;" edge="1" parent="1" source="-5baJ4B15Eqb_kxvuub7-55" target="-5baJ4B15Eqb_kxvuub7-36">
          <mxGeometry relative="1" as="geometry" />
        </mxCell>
        <mxCell id="-5baJ4B15Eqb_kxvuub7-57" style="edgeStyle=orthogonalEdgeStyle;rounded=0;orthogonalLoop=1;jettySize=auto;html=1;entryX=1.006;entryY=0.698;entryDx=0;entryDy=0;entryPerimeter=0;endArrow=ERoneToMany;endFill=0;startArrow=ERmandOne;startFill=0;" edge="1" parent="1" source="eZbpMwk5PudAEd0YVaxT-7" target="-5baJ4B15Eqb_kxvuub7-50">
          <mxGeometry relative="1" as="geometry" />
        </mxCell>
        <mxCell id="-5baJ4B15Eqb_kxvuub7-58" style="edgeStyle=orthogonalEdgeStyle;rounded=0;orthogonalLoop=1;jettySize=auto;html=1;entryX=1;entryY=0.25;entryDx=0;entryDy=0;endArrow=ERmandOne;endFill=0;startArrow=ERoneToMany;startFill=0;" edge="1" parent="1" source="-5baJ4B15Eqb_kxvuub7-52" target="eZbpMwk5PudAEd0YVaxT-1">
          <mxGeometry relative="1" as="geometry" />
        </mxCell>
        <mxCell id="-5baJ4B15Eqb_kxvuub7-59" style="edgeStyle=orthogonalEdgeStyle;rounded=0;orthogonalLoop=1;jettySize=auto;html=1;entryX=-0.006;entryY=0.681;entryDx=0;entryDy=0;entryPerimeter=0;endArrow=ERoneToMany;endFill=0;startArrow=ERmandOne;startFill=0;" edge="1" parent="1" source="eZbpMwk5PudAEd0YVaxT-12" target="-5baJ4B15Eqb_kxvuub7-29">
          <mxGeometry relative="1" as="geometry" />
        </mxCell>
        <mxCell id="-5baJ4B15Eqb_kxvuub7-61" value="Genero" style="swimlane;fontStyle=0;childLayout=stackLayout;horizontal=1;startSize=26;fillColor=none;horizontalStack=0;resizeParent=1;resizeParentMax=0;resizeLast=0;collapsible=1;marginBottom=0;whiteSpace=wrap;html=1;" vertex="1" parent="1">
          <mxGeometry x="605" y="701" width="140" height="78" as="geometry" />
        </mxCell>
        <mxCell id="-5baJ4B15Eqb_kxvuub7-62" value="id_genero" style="text;strokeColor=none;fillColor=none;align=left;verticalAlign=top;spacingLeft=4;spacingRight=4;overflow=hidden;rotatable=0;points=[[0,0.5],[1,0.5]];portConstraint=eastwest;whiteSpace=wrap;html=1;" vertex="1" parent="-5baJ4B15Eqb_kxvuub7-61">
          <mxGeometry y="26" width="140" height="26" as="geometry" />
        </mxCell>
        <mxCell id="-5baJ4B15Eqb_kxvuub7-63" value="nombre" style="text;strokeColor=none;fillColor=none;align=left;verticalAlign=top;spacingLeft=4;spacingRight=4;overflow=hidden;rotatable=0;points=[[0,0.5],[1,0.5]];portConstraint=eastwest;whiteSpace=wrap;html=1;" vertex="1" parent="-5baJ4B15Eqb_kxvuub7-61">
          <mxGeometry y="52" width="140" height="26" as="geometry" />
        </mxCell>
        <mxCell id="-5baJ4B15Eqb_kxvuub7-66" style="edgeStyle=orthogonalEdgeStyle;rounded=0;orthogonalLoop=1;jettySize=auto;html=1;entryX=0;entryY=0.5;entryDx=0;entryDy=0;endArrow=ERmandOne;endFill=0;startArrow=ERoneToMany;startFill=0;" edge="1" parent="1" source="-5baJ4B15Eqb_kxvuub7-64" target="-5baJ4B15Eqb_kxvuub7-62">
          <mxGeometry relative="1" as="geometry">
            <Array as="points">
              <mxPoint x="572" y="599" />
              <mxPoint x="572" y="740" />
            </Array>
          </mxGeometry>
        </mxCell>
      </root>
    </mxGraphModel>
  </diagram>
</mxfile>
